<svg width="352" height="262" viewBox="0 0 352 262" fill="none" xmlns="http://www.w3.org/2000/svg">
<ellipse rx="136" ry="127.554" transform="matrix(-1 0 0 1 166.869 132.445)" fill="#F3F3F3"/>
<path fill-rule="evenodd" clip-rule="evenodd" d="M280.737 188.181C280.796 188.147 281.162 188.63 281.703 189.581C282.247 190.53 282.923 191.97 283.551 193.829C284.839 197.534 285.648 203.003 285.169 208.967C284.693 214.931 283.315 220.166 282.251 223.892C281.163 227.62 280.362 229.882 280.224 229.844C280.072 229.802 280.612 227.461 281.505 223.697C282.375 219.933 283.616 214.726 284.081 208.885C284.549 203.045 283.884 197.73 282.815 194.055C281.777 190.362 280.566 188.27 280.737 188.181Z" fill="white"/>
<path fill-rule="evenodd" clip-rule="evenodd" d="M284.411 158.334C284.48 158.304 284.922 159.114 285.661 160.609C286.399 162.103 287.437 164.281 288.664 166.998C291.098 172.433 294.374 180.041 296.75 188.874C297.918 193.292 298.714 197.587 299.117 201.532C299.524 205.476 299.565 209.059 299.362 212.049C299.165 215.041 298.787 217.442 298.424 219.075C298.064 220.711 297.779 221.592 297.715 221.577C297.514 221.538 298.403 217.938 298.592 212.014C298.827 206.102 298.051 197.888 295.696 189.155C293.347 180.418 290.205 172.806 287.956 167.304C286.823 164.551 285.907 162.322 285.273 160.782C284.654 159.235 284.342 158.365 284.411 158.334Z" fill="white"/>
<path fill-rule="evenodd" clip-rule="evenodd" d="M148.425 193.365C148.551 193.501 147.314 194.68 145.71 196.87C145.311 197.42 144.879 198.021 144.474 198.709C144.031 199.37 143.646 200.13 143.218 200.914C142.421 202.513 141.665 204.329 141.081 206.307C140.523 208.292 140.198 210.232 140.022 212.01C139.969 212.901 139.892 213.75 139.914 214.545C139.892 215.343 139.938 216.083 139.982 216.761C140.176 219.468 140.597 221.125 140.418 221.173C140.309 221.21 139.617 219.61 139.215 216.84C139.119 216.148 139.027 215.387 139.01 214.564C138.948 213.742 138.992 212.863 139.02 211.936C139.145 210.09 139.453 208.066 140.034 206.005C140.638 203.951 141.453 202.074 142.33 200.443C142.799 199.643 143.228 198.875 143.718 198.213C144.17 197.524 144.653 196.929 145.103 196.394C146.916 194.262 148.353 193.276 148.425 193.365Z" fill="white"/>
<path fill-rule="evenodd" clip-rule="evenodd" d="M151.327 202.921C151.419 203.067 150.73 203.594 149.83 204.602C149.374 205.099 148.894 205.744 148.422 206.492C147.969 207.252 147.536 208.125 147.196 209.086C146.87 210.053 146.674 211.007 146.562 211.886C146.473 212.765 146.453 213.568 146.505 214.242C146.592 215.59 146.811 216.43 146.648 216.489C146.531 216.538 146.041 215.769 145.741 214.344C145.584 213.634 145.52 212.764 145.561 211.801C145.624 210.84 145.808 209.787 146.165 208.731C146.535 207.679 147.04 206.737 147.582 205.941C148.143 205.157 148.73 204.513 149.291 204.05C150.405 203.112 151.265 202.809 151.327 202.921Z" fill="white"/>
<path fill-rule="evenodd" clip-rule="evenodd" d="M111.039 113.869C111.096 113.82 111.584 114.3 112.421 115.216C112.847 115.669 113.349 116.24 113.881 116.944C114.418 117.641 115.064 118.416 115.67 119.347C115.983 119.806 116.312 120.287 116.653 120.789C116.991 121.294 117.297 121.846 117.639 122.404C118.337 123.512 118.963 124.763 119.644 126.068C120.93 128.714 122.159 131.718 123.138 134.975C124.086 138.241 124.688 141.431 125.047 144.351C125.184 145.817 125.338 147.207 125.354 148.516C125.371 149.17 125.414 149.8 125.404 150.408C125.391 151.015 125.377 151.596 125.364 152.152C125.361 153.265 125.239 154.265 125.168 155.143C125.104 156.023 124.992 156.774 124.881 157.385C124.677 158.61 124.528 159.278 124.454 159.268C124.261 159.242 124.623 156.529 124.593 152.144C124.583 151.596 124.573 151.023 124.563 150.424C124.55 149.826 124.487 149.206 124.451 148.564C124.397 147.277 124.211 145.913 124.05 144.476C123.642 141.613 123.023 138.49 122.092 135.284C121.131 132.088 119.954 129.13 118.74 126.504C118.095 125.21 117.508 123.964 116.855 122.855C116.535 122.296 116.251 121.741 115.938 121.233C115.621 120.726 115.318 120.238 115.028 119.773C112.67 116.076 110.891 113.995 111.039 113.869Z" fill="white"/>
<path fill-rule="evenodd" clip-rule="evenodd" d="M123.387 118.978C123.48 118.895 124.732 120.067 126.325 122.325C127.126 123.449 127.971 124.865 128.793 126.499C129.592 128.143 130.353 130.011 130.961 132.034C131.551 134.064 131.926 136.046 132.149 137.861C132.346 139.679 132.407 141.326 132.345 142.706C132.234 145.466 131.819 147.13 131.697 147.111C131.522 147.09 131.662 145.405 131.573 142.705C131.538 141.356 131.399 139.753 131.153 137.992C130.881 136.233 130.488 134.315 129.916 132.344C129.325 130.378 128.613 128.554 127.886 126.93C127.134 125.317 126.38 123.897 125.677 122.744C124.284 120.43 123.252 119.091 123.387 118.978Z" fill="white"/>
<path fill-rule="evenodd" clip-rule="evenodd" d="M80.1501 208.206L79.2009 206.268L52.7759 226.459L64.3043 245.135L90.6087 222.956L80.1501 208.206Z" fill="#22343D"/>
<path fill-rule="evenodd" clip-rule="evenodd" d="M53.8833 226.891L64.0109 244.405L64.6586 244.116L55.6396 227.74L53.8833 226.891Z" fill="#D7D4D4"/>
<path fill-rule="evenodd" clip-rule="evenodd" d="M79.6282 207.823L53.8833 226.89C53.8833 226.89 53.9912 227.3 54.6301 227.552C55.2698 227.805 55.6396 227.74 55.6396 227.74L82.7059 209.216C82.7059 209.216 81.1456 208.853 80.5798 208.431C80.0131 208.007 79.6282 207.823 79.6282 207.823Z" fill="#F5F3F3"/>
<path fill-rule="evenodd" clip-rule="evenodd" d="M83.3673 208.468L55.1558 227.312L64.3183 244.677L65.7945 247.082L94.0068 226.202C94.0068 226.202 91.0354 221.767 89.2513 219.089C87.4672 216.411 83.9649 210.096 83.7744 209.691C83.5832 209.287 83.3673 208.468 83.3673 208.468Z" fill="#FAB005"/>
<path fill-rule="evenodd" clip-rule="evenodd" d="M316.02 78.3744L316.817 76.7466L339.007 93.7014L329.326 109.385L307.238 90.7601L316.02 78.3744Z" fill="#22343D"/>
<path fill-rule="evenodd" clip-rule="evenodd" d="M338.077 94.064L329.573 108.771L329.029 108.529L336.603 94.7775L338.077 94.064Z" fill="#D7D4D4"/>
<path fill-rule="evenodd" clip-rule="evenodd" d="M316.458 78.0518L338.077 94.0637C338.077 94.0637 337.986 94.4074 337.45 94.6193C336.913 94.8312 336.602 94.7772 336.602 94.7772L313.874 79.2216C313.874 79.2216 315.184 78.9176 315.659 78.5621C316.135 78.2065 316.458 78.0518 316.458 78.0518Z" fill="#F5F3F3"/>
<path fill-rule="evenodd" clip-rule="evenodd" d="M313.319 78.5947L337.009 94.4178L329.315 109L328.076 111.019L304.384 93.4853C304.384 93.4853 306.88 89.7607 308.377 87.5122C309.877 85.2638 312.817 79.9606 312.977 79.6209C313.137 79.282 313.319 78.5947 313.319 78.5947Z" fill="#4DADF7"/>
<path fill-rule="evenodd" clip-rule="evenodd" d="M48.6017 47.8582C48.6017 47.8582 46.9264 49.0177 47.7637 50.951C48.6017 52.8844 52.2747 58.6193 57.2365 58.4257C57.4397 58.4185 50.9858 47.8582 50.9858 47.8582H48.6017Z" fill="#22343D"/>
<path fill-rule="evenodd" clip-rule="evenodd" d="M41.0116 153.584C41.0116 153.584 34.8069 148.041 32.8205 149.034C30.3935 150.247 16.5024 163.857 17.0453 170.269C17.2683 172.896 20.3254 170.646 25.7729 164.995C31.2221 159.345 38.0831 161.766 38.0831 161.766L41.0116 153.584Z" fill="#22343D"/>
<path fill-rule="evenodd" clip-rule="evenodd" d="M56.0865 162.932L48.5961 158.438C48.5961 158.438 29.1805 176.64 32.2138 179.067C34.5146 180.908 35.8669 179.257 41.3153 173.606C46.7628 167.957 53.6651 171.206 53.6651 171.206L56.0865 162.932Z" fill="#22343D"/>
<path fill-rule="evenodd" clip-rule="evenodd" d="M101.842 103.046L103.246 122.993L72.0659 114.869L101.842 103.046Z" fill="#F3A683"/>
<path fill-rule="evenodd" clip-rule="evenodd" d="M72.0659 115.556C72.0659 115.556 99.3402 117.275 102.972 116.063C102.972 116.063 108.302 168.426 98.818 174.075C89.3332 179.726 68.0493 171.452 68.0493 171.452L73.7961 160.152L86.1864 159.345V139.166L85.2975 139.368L72.0659 115.556Z" fill="#112129"/>
<path fill-rule="evenodd" clip-rule="evenodd" d="M37.877 151.273C37.877 151.273 31.0168 154.099 33.2366 160.96C33.2366 160.96 56.6545 179.323 68.0496 175.085C74.4337 172.711 81.2915 154.598 86.0891 139.123L102.972 116.063C102.972 116.063 95.0096 116.461 92.3533 116.451C87.2764 116.432 72.0662 115.556 72.0662 115.556C72.0662 115.556 64.1211 157.126 61.2902 158.134C58.4593 159.142 37.877 151.273 37.877 151.273Z" fill="#22343D"/>
<path fill-rule="evenodd" clip-rule="evenodd" d="M78.4219 63.4178C78.4219 63.4178 94.7677 48.0812 97.5923 44.0447C100.417 40.009 106.472 26.4891 113.936 20.839L110.305 13.1707C110.305 13.1707 112.525 11.9604 113.936 15.1882C113.936 15.1882 119.182 4.69609 120.394 4.89689C121.605 5.09848 117.973 12.9691 117.973 12.9691C117.973 12.9691 123.019 5.70404 124.431 5.90642C125.842 6.10801 120.798 14.0731 120.798 14.0731C120.798 14.0731 126.447 7.52071 127.255 8.32786C128.062 9.135 122.816 14.0731 122.816 14.0731C122.816 14.0731 128.466 10.8295 129.071 11.8985C129.677 12.9691 123.421 15.7938 123.421 15.7938C123.421 15.7938 122.816 20.4351 118.982 22.4525C118.982 22.4525 111.391 42.9621 104.53 49.6209L82.4901 72.5274L78.4219 63.4178Z" fill="#FFC6B2"/>
<path fill-rule="evenodd" clip-rule="evenodd" d="M58.9097 71.3665C58.9097 71.3665 43.4218 87.5681 39.36 90.3546C35.2973 93.1404 21.7221 99.0698 16.0032 106.482L8.36913 102.779C8.36913 102.779 7.13819 104.986 10.3532 106.429C10.3532 106.429 -0.188696 111.577 0.00257156 112.79C0.192252 114.003 8.09611 110.444 8.09611 110.444C8.09611 110.444 0.784307 115.422 0.973193 116.836C1.16208 118.249 9.17308 113.279 9.17308 113.279C9.17308 113.279 2.56841 118.867 3.3684 119.682C4.1668 120.497 9.15483 115.298 9.15483 115.298C9.15483 115.298 5.85805 120.917 6.92311 121.532C7.98659 122.147 10.8699 115.918 10.8699 115.918C10.8699 115.918 15.5159 115.358 17.5706 111.542C17.5706 111.542 36.9965 103.813 43.7202 97.0142L67.8945 79.8847L58.9097 71.3665Z" fill="#FFC6B2"/>
<path fill-rule="evenodd" clip-rule="evenodd" d="M64.716 64.9092L56.8828 72.5775L58.8693 81.222C58.8693 81.222 66.5867 99.7498 67.7533 104.27C69.5668 111.298 66.6335 122.015 66.6335 122.015C66.6335 122.015 79.7166 120.929 91.6212 120.525C103.525 120.121 107.419 116.286 107.419 116.286C107.419 116.286 97.0981 81.9101 89.972 72.3005C82.8452 62.6925 80.2531 59.6846 80.2531 59.6846L69.7604 61.9782L64.716 64.9092Z" fill="#FAB005"/>
<path fill-rule="evenodd" clip-rule="evenodd" d="M87.705 71.1674L95.8668 65.9522C95.8668 65.9522 97.1136 60.3649 87.2709 53.7744L75.729 61.007L87.705 71.1674Z" fill="#22343D"/>
<path fill-rule="evenodd" clip-rule="evenodd" d="M58.5335 71.9711C54.059 72.5989 45.8821 83.9394 44.9702 83.918C44.9702 83.918 50.7249 93.3093 55.2836 93.6141C55.2836 93.6141 75.3444 69.6132 58.5335 71.9711Z" fill="#22343D"/>
<path fill-rule="evenodd" clip-rule="evenodd" d="M74.3283 64.592C74.3283 64.592 67.8244 59.7324 68.0498 57.7951C68.107 57.307 69.0085 56.515 69.2427 55.8118C70.5038 52.0284 64.4237 42.28 60.688 40.2252C57.7492 38.6093 59.0372 38.4665 52.8524 42.1419C46.6676 45.8173 50.1913 52.1729 52.9532 55.4602C55.5643 58.5673 58.5547 59.8983 61.2452 60.1229L65.0705 68.6198L74.3283 64.592Z" fill="#FFC6B2"/>
<path fill-rule="evenodd" clip-rule="evenodd" d="M62.5929 71.3378C61.3627 68.3203 63.6921 64.5195 67.796 62.8457C71.9015 61.1711 76.2244 62.26 77.457 65.2759C78.6863 68.2925 74.5562 72.8275 72.2507 73.768C69.9452 74.7084 63.8222 74.3537 62.5929 71.3378Z" fill="#FFC6B2"/>
<path fill-rule="evenodd" clip-rule="evenodd" d="M52.9539 55.4604C52.9539 55.4604 50.8444 55.3437 50.6103 56.7493C50.3754 58.1556 54.4769 58.1556 56.0007 57.1009L52.9539 55.4604Z" fill="#FFC6B2"/>
<path fill-rule="evenodd" clip-rule="evenodd" d="M54.0085 56.7493C53.6077 54.2088 50.9006 52.3199 51.0355 49.8445C52.3331 49.8549 53.1664 48.2477 52.576 46.8739C52.3434 46.3342 51.9498 45.8723 51.6982 45.3398C51.4474 44.808 51.3807 44.1112 51.7657 43.8104C51.9482 43.6683 52.195 43.6437 52.4315 43.6199C54.3553 43.4223 57.6513 43.9993 59.4219 43.3429C61.1076 42.7183 62.9139 41.5032 62.7385 39.4381C62.5854 37.6397 60.9973 36.1818 59.5386 35.0802C58.7029 34.4484 56.3148 32.7968 55.414 32.9468C54.0386 33.1754 53.7053 35.0103 53.6061 36.5461C52.6442 35.6302 51.2252 35.777 50.3887 36.5223C49.5522 37.2675 49.1562 38.4516 48.7919 39.5945C48.4268 40.7381 48.0403 41.9255 47.2149 42.685C46.4459 43.3929 45.2292 43.9286 45.3888 45.1326C45.5784 46.5675 47.453 47.0779 48.3197 48.3017C48.1062 48.0017 47.9252 49.9176 48.0482 50.2422C48.4181 51.2207 49.3411 51.8684 50.0085 52.6168C51.4299 54.212 52.1252 55.8184 54.0085 56.7493Z" fill="#22343D"/>
<path fill-rule="evenodd" clip-rule="evenodd" d="M65.7931 50.9404L60.9868 53.4262C60.9868 53.4262 66.7598 57.6167 65.7931 50.9404Z" fill="white"/>
<path fill-rule="evenodd" clip-rule="evenodd" d="M59.1806 51.9257C59.4433 52.4241 59.0544 53.1447 58.3124 53.5352C57.5703 53.9257 56.7561 53.8384 56.4934 53.34C56.2315 52.8415 56.6196 52.1217 57.3616 51.7304C58.1045 51.34 58.9179 51.4273 59.1806 51.9257Z" fill="#FFB2A0"/>
<path fill-rule="evenodd" clip-rule="evenodd" d="M66.1982 47.1317C66.4609 47.6301 66.072 48.3508 65.33 48.7413C64.5879 49.1317 63.7736 49.0444 63.5109 48.546C63.249 48.0476 63.6371 47.327 64.3792 46.9365C65.122 46.546 65.9355 46.6333 66.1982 47.1317Z" fill="#FFB2A0"/>
<path fill-rule="evenodd" clip-rule="evenodd" d="M62.4376 50.7641C62.4153 50.7363 62.505 50.6181 62.713 50.4681C62.9114 50.3149 63.2566 50.1498 63.513 49.8736C63.7669 49.6061 63.8582 49.0482 63.4693 48.9696C63.0653 48.8323 62.6066 49.2958 62.0804 49.7363C61.9503 49.8442 61.8217 49.9514 61.6939 50.0569C61.5749 50.1665 61.3241 50.3268 61.0638 50.2942C60.5678 50.2141 60.3566 49.8831 60.1662 49.6617C59.7852 49.1728 59.5503 48.6609 59.4201 48.218C59.1622 47.3228 59.2781 46.745 59.34 46.7498C59.4265 46.7458 59.4551 47.3014 59.7828 48.0887C59.9479 48.48 60.1947 48.9244 60.5543 49.3442C60.7297 49.5569 60.9503 49.7554 61.1074 49.7617C61.1733 49.7649 61.2249 49.7427 61.3487 49.6387C61.4749 49.5331 61.6019 49.426 61.7304 49.3181C61.9955 49.1038 62.2249 48.8871 62.528 48.6855C62.8225 48.4871 63.2423 48.3617 63.6185 48.4895C64.0201 48.595 64.2558 49.0633 64.186 49.3887C64.1407 49.7204 63.9756 49.9649 63.7883 50.1435C63.3923 50.4744 63.0384 50.5546 62.8153 50.6546C62.5868 50.7411 62.4614 50.795 62.4376 50.7641Z" fill="#22343D"/>
<path fill-rule="evenodd" clip-rule="evenodd" d="M61.2456 60.1231C61.2456 60.1231 64.3114 60.1406 65.9749 59.116C65.9749 59.116 64.5678 60.8445 61.7519 61.2922L61.2456 60.1231Z" fill="#FFA192"/>
<path fill-rule="evenodd" clip-rule="evenodd" d="M62.5746 46.374C62.5469 46.5255 62.1183 46.5724 61.6651 46.7724C61.2056 46.9581 60.8739 47.2335 60.7461 47.1478C60.6152 47.0787 60.8318 46.5311 61.4524 46.27C62.0723 46.0073 62.6151 46.2311 62.5746 46.374Z" fill="#22343D"/>
<path fill-rule="evenodd" clip-rule="evenodd" d="M56.5663 50.3152C56.4505 50.2295 56.6322 49.7359 57.0735 49.2414C57.5203 48.7366 58.0909 48.5684 58.1512 48.7097C58.2147 48.847 57.8671 49.1668 57.4759 49.6105C57.0782 50.0525 56.6917 50.4089 56.5663 50.3152Z" fill="#22343D"/>
<path fill-rule="evenodd" clip-rule="evenodd" d="M54.2381 49.5534C53.9897 49.3692 53.796 48.5811 54.7468 47.5192C55.7063 46.4335 56.7785 46.6248 56.9071 46.9264C57.0452 47.2224 56.6881 47.6438 55.846 48.5986C54.9913 49.5502 54.5071 49.7549 54.2381 49.5534Z" fill="#22343D"/>
<path fill-rule="evenodd" clip-rule="evenodd" d="M59.2852 45.3705C59.1479 45.1133 59.2995 44.3649 60.5359 43.8435C61.7899 43.3046 62.6256 43.899 62.6137 44.2078C62.6113 44.5149 62.1391 44.73 61.0375 45.2046C59.928 45.6705 59.4336 45.6506 59.2852 45.3705Z" fill="#22343D"/>
<path fill-rule="evenodd" clip-rule="evenodd" d="M323.021 52.8152C323.102 52.8954 321.77 54.3938 319.006 56.0255C316.277 57.6557 311.983 59.2716 307.043 59.3081C302.103 59.3446 297.785 57.7922 295.032 56.2025C292.246 54.612 290.892 53.1327 290.971 53.0509C291.086 52.9057 292.6 54.1533 295.391 55.5192C298.154 56.8906 302.319 58.2517 307.034 58.2176C311.751 58.1819 315.895 56.7597 318.638 55.3477C321.407 53.9406 322.904 52.6708 323.021 52.8152Z" fill="#22343D"/>
<path fill-rule="evenodd" clip-rule="evenodd" d="M292.886 50.5517C292.811 50.7175 291.336 50.1056 288.852 49.5517C287.614 49.2596 286.111 49.0342 284.438 48.8263C282.759 48.6405 280.903 48.4929 278.943 48.3532C276.981 48.2159 275.104 48.058 273.4 47.8469C271.695 47.6207 270.163 47.3516 268.901 47.0104C266.368 46.3493 264.933 45.5667 264.983 45.4564C265.049 45.2897 266.558 45.8048 269.066 46.2564C270.318 46.4953 271.828 46.6802 273.51 46.8477C275.196 47.0016 277.058 47.1278 279.021 47.2659C280.986 47.4056 282.866 47.5858 284.569 47.8302C286.272 48.0977 287.799 48.4088 289.048 48.8056C291.557 49.5715 292.942 50.4477 292.886 50.5517Z" fill="#22343D"/>
<mask id="mask0" style="mask-type:alpha" maskUnits="userSpaceOnUse" x="253" y="8" width="99" height="49">
<path fill-rule="evenodd" clip-rule="evenodd" d="M253.051 8.50513H352V56.9846H253.051V8.50513Z" fill="white"/>
</mask>
<g mask="url(#mask0)">
<path fill-rule="evenodd" clip-rule="evenodd" d="M263.004 18.3246C267.714 17.3254 272.593 18.1857 277.341 18.977C282.09 19.7683 287.02 20.4818 291.663 19.2072C300.046 16.9064 306.409 8.43728 315.102 8.50554C318.681 8.53332 322.055 10.0619 325.542 10.8706C329.872 11.8754 334.383 11.7675 338.77 12.4841C343.157 13.2008 347.689 14.9651 350.168 18.6548C353.109 23.0334 352.303 29.2096 349.216 33.4874C346.13 37.766 341.187 40.3708 336.123 41.847C332.59 42.8763 328.827 43.4716 325.77 45.52C322.678 47.5922 320.659 50.9272 317.778 53.2835C310.549 59.1955 299.298 57.501 291.831 51.893C289.954 50.4843 288.216 48.8494 286.108 47.8184C277.534 43.6216 265.203 49.1772 257.819 41.5414C250.321 33.7866 251.389 20.7881 263.004 18.3246Z" fill="#22343D"/>
</g>
<path fill-rule="evenodd" clip-rule="evenodd" d="M260.651 168.507C260.651 168.507 268.507 185.345 269.426 182.227C270.343 179.108 270.039 171.62 269.547 170.551C269.053 169.482 265.842 164.759 265.842 164.759L260.651 168.507Z" fill="#FFB2A0"/>
<path fill-rule="evenodd" clip-rule="evenodd" d="M317.453 32.3534C318.18 33.2843 317.694 32.2843 318.517 33.6272C321.938 33.5081 324.234 30.6137 324.234 30.6137C324.234 30.6137 329.663 30.7573 329.601 29.7875C329.539 28.816 324.396 29.1787 324.396 29.1787C324.396 29.1787 329.836 27.47 329.538 26.6168C329.241 25.7644 322.96 28.4835 322.96 28.4835C322.96 28.4835 329.298 24.5494 328.362 23.9184C327.426 23.289 321.328 26.7232 321.328 26.7232C321.328 26.7232 326.628 22.37 325.833 21.8089C325.04 21.2477 317.689 26.9136 317.689 26.9136C317.796 24.1263 315.797 24.224 315.797 24.224L315.879 31.0295C315.879 31.0295 317.118 31.9248 317.453 32.3534Z" fill="#FFC6B2"/>
<path fill-rule="evenodd" clip-rule="evenodd" d="M265.155 29.9794C263.653 29.7326 260.02 32.1469 258.203 36.0819C257.185 38.2842 256.485 40.5216 257.653 44.1033C258.203 45.7882 259.354 45.9994 259.611 46.7541C259.935 47.7097 258.86 50.7216 258.86 50.7216L263.148 52.4534C263.427 50.3843 263.742 48.3025 265.851 47.4041C266.64 47.0676 267.484 46.8549 268.229 46.4279C270.238 45.2763 271.311 42.7573 272.136 40.6946C272.752 39.1541 268.922 30.5969 265.155 29.9794Z" fill="#FFC6B2"/>
<path fill-rule="evenodd" clip-rule="evenodd" d="M260.051 88.4582L252.867 85.5757C252.867 85.5757 231.547 125.113 231.636 136.083C231.724 147.052 260.918 169.015 260.918 169.015L265.841 164.759C265.841 164.759 256.828 149.043 252.01 143.501C247.191 137.958 260.051 88.4582 260.051 88.4582Z" fill="#FFB2A0"/>
<path fill-rule="evenodd" clip-rule="evenodd" d="M295.721 133.497C295.721 133.497 311.555 125.985 308.373 125.321C305.191 124.661 297.75 125.571 296.726 126.149C295.699 126.727 291.253 130.311 291.253 130.311L295.721 133.497Z" fill="#FFC6B2"/>
<path fill-rule="evenodd" clip-rule="evenodd" d="M267.108 88.1155L256.21 92.0806C256.21 92.0806 245.308 140.03 249.47 147.558C253.63 155.089 265.318 150.105 281.964 141.02L295.907 133.409L291.253 130.312C291.253 130.312 275.029 133.491 270.472 136.661C270.472 136.661 272.85 129.924 276.021 120.413C279.19 110.902 281.377 101.193 267.108 88.1155Z" fill="#FFC6B2"/>
<path fill-rule="evenodd" clip-rule="evenodd" d="M253.693 55.4487C253.693 52.263 254.719 49.959 257.904 49.959C261.09 49.959 265.494 51.0757 265.494 54.2622C265.494 57.4495 262.984 62.6233 259.796 62.6233C256.611 62.6233 253.693 58.636 253.693 55.4487Z" fill="#FFC6B2"/>
<path fill-rule="evenodd" clip-rule="evenodd" d="M256.209 49.5026C256.209 49.5026 246.303 38.7819 244.321 28.2794C242.339 17.7786 238.972 0.738037 238.972 0.738037L235.207 1.82217C235.207 1.82217 233.423 25.1104 235.207 28.6763C236.99 32.2429 245.703 55.9875 248.356 62.2232L256.209 49.5026Z" fill="#FFC6B2"/>
<path fill-rule="evenodd" clip-rule="evenodd" d="M266.852 57.8581C266.852 57.8581 267.613 54.5231 280.14 49.9906C292.667 45.4588 316.3 30.769 316.3 30.769L318.658 33.4667C318.658 33.4667 305.817 48.2993 298.346 50.9009C290.876 53.5033 275.009 63.7613 273.376 64.5819C270.907 65.824 270.937 67.3867 266.852 57.8581Z" fill="#FFC6B2"/>
<path fill-rule="evenodd" clip-rule="evenodd" d="M256.209 49.5027C256.209 49.5027 246.144 52.7646 246.144 68.0798C246.144 68.0798 246.15 89.0553 248.523 92.8711C248.523 92.8711 252.379 93.8592 257.187 92.8711C262.228 91.8346 267.107 88.1156 267.107 88.1156L275.025 64.3464L274.078 53.2098L263.313 51.1313C263.313 51.1313 266.401 65.5623 255.228 59.3583C253.057 58.1527 258.422 49.9654 258.422 49.9654L256.209 49.5027Z" fill="#4DADF7"/>
<path fill-rule="evenodd" clip-rule="evenodd" d="M247.693 61.9585L242.734 51.6259C242.734 51.6259 243.445 45.3576 252.55 43.1116C252.55 43.1116 253.47 46.2711 254.48 47.4783C255.488 48.6846 258.427 49.9687 258.427 49.9687L247.693 61.9585Z" fill="#22343D"/>
<path fill-rule="evenodd" clip-rule="evenodd" d="M266.443 66.1117L282.213 62.8791C282.213 62.8791 284.955 57.1982 278.454 50.4402C278.454 50.4402 266.152 51.183 264.56 51.3156C262.993 51.4457 264.069 52.6529 264.069 52.6529L266.443 66.1117Z" fill="#22343D"/>
<path fill-rule="evenodd" clip-rule="evenodd" d="M248.497 87.7618C248.497 87.7618 233.581 115.341 231.117 120.268C231.117 120.268 275.123 140.483 292.987 116.151C292.987 116.151 282.826 94.6428 267.116 86.4547L260.339 84.4253L248.762 87.6293" fill="#4DADF7"/>
<path fill-rule="evenodd" clip-rule="evenodd" d="M271.559 40.4339C271.559 40.4339 273.258 38.7346 274.303 39.9108C275.349 41.087 270.514 42.7862 270.514 42.7862L271.559 40.4339Z" fill="#FFC6B2"/>
<path fill-rule="evenodd" clip-rule="evenodd" d="M302.639 17.2592C302.656 17.318 301.999 17.6021 300.746 17.8997C299.496 18.2005 297.642 18.4735 295.338 18.5203C293.035 18.5664 290.297 18.3616 287.3 17.9553C284.301 17.5576 281.043 16.9735 277.616 16.5997C274.193 16.2338 270.903 16.1672 267.989 16.6378C265.074 17.1005 262.551 18.0553 260.622 19.1704C258.694 20.2942 257.352 21.541 256.528 22.4847C255.699 23.4291 255.326 24.0323 255.242 23.9815C255.196 23.9577 255.445 23.2783 256.196 22.2196C256.942 21.164 258.259 19.7711 260.222 18.5116C262.184 17.26 264.792 16.1846 267.822 15.6465C270.856 15.1005 274.25 15.1426 277.731 15.5156C281.216 15.8957 284.478 16.5132 287.442 16.9608C290.406 17.4172 293.084 17.6965 295.34 17.7489C299.861 17.8751 302.598 17.0727 302.639 17.2592Z" fill="#22343D"/>
<path fill-rule="evenodd" clip-rule="evenodd" d="M262.906 39.4692C262.901 39.5358 262.417 39.5827 261.678 39.3374C261.495 39.2731 261.28 39.189 261.079 39.0049C260.98 38.9128 260.888 38.7906 260.831 38.6438C260.75 38.4382 260.757 38.2049 260.837 38.0271C260.861 37.9914 260.859 37.9065 260.906 37.9049L261.049 37.9001C261.141 37.8874 261.25 37.9176 261.357 37.9374C261.552 37.9747 261.614 37.9692 261.753 37.9787C261.997 37.9842 262.249 37.9588 262.502 37.9033C263.534 37.6858 264.224 36.935 264.533 36.3176C264.858 35.6961 264.887 35.2287 264.973 35.2342C265.034 35.2263 265.155 35.7231 264.887 36.4731C264.75 36.8406 264.513 37.262 264.13 37.6319C263.749 38.0009 263.221 38.3041 262.622 38.435C262.322 38.5017 262.022 38.5271 261.732 38.512C261.606 38.5057 261.407 38.4803 261.349 38.4676C261.296 38.4588 261.303 38.4469 261.292 38.4533C261.286 38.4596 261.283 38.47 261.284 38.485C261.305 38.5565 261.344 38.6247 261.399 38.6858C261.509 38.8104 261.669 38.9033 261.826 38.9811C262.464 39.2946 262.918 39.3874 262.906 39.4692Z" fill="#22343D"/>
<path fill-rule="evenodd" clip-rule="evenodd" d="M259.368 39.6528L265.178 41.9417C265.178 41.9417 260.072 45.4624 259.368 39.6528Z" fill="white"/>
<path fill-rule="evenodd" clip-rule="evenodd" d="M267.659 40.7543C267.452 41.1464 266.813 41.2146 266.229 40.9075C265.646 40.6011 265.34 40.0345 265.546 39.6432C265.752 39.2511 266.393 39.1821 266.976 39.4892C267.559 39.7964 267.865 40.3622 267.659 40.7543Z" fill="#FFB2A0"/>
<path fill-rule="evenodd" clip-rule="evenodd" d="M261.175 37.3164C260.998 37.7227 260.366 37.8402 259.761 37.5783C259.156 37.3164 258.808 36.7751 258.984 36.3688C259.16 35.9624 259.793 35.845 260.398 36.1069C261.002 36.3688 261.351 36.91 261.175 37.3164Z" fill="#FFB2A0"/>
<path fill-rule="evenodd" clip-rule="evenodd" d="M259.022 46.0242C259.022 46.0242 261.059 47.7297 263.184 47.1805C263.184 47.1805 262.451 48.2789 259.631 47.8758C259.631 47.8758 259.865 46.6654 259.022 46.0242Z" fill="#FFA192"/>
<path fill-rule="evenodd" clip-rule="evenodd" d="M267.101 37.1056C267.101 37.3596 266.894 37.5659 266.64 37.5659C266.387 37.5659 266.18 37.3596 266.18 37.1056C266.18 36.8516 266.387 36.6453 266.64 36.6453C266.894 36.6453 267.101 36.8516 267.101 37.1056Z" fill="#22343D"/>
<path fill-rule="evenodd" clip-rule="evenodd" d="M263.335 35.7489C263.335 36.0029 263.129 36.2092 262.875 36.2092C262.621 36.2092 262.415 36.0029 262.415 35.7489C262.415 35.4949 262.621 35.2886 262.875 35.2886C263.129 35.2886 263.335 35.4949 263.335 35.7489Z" fill="#22343D"/>
<path fill-rule="evenodd" clip-rule="evenodd" d="M268.58 35.8793C268.438 35.9397 268.163 35.6071 267.747 35.3381C267.34 35.0571 266.928 34.9309 266.928 34.777C266.915 34.6293 267.491 34.5095 268.051 34.8849C268.611 35.2579 268.722 35.8349 268.58 35.8793Z" fill="#22343D"/>
<path fill-rule="evenodd" clip-rule="evenodd" d="M261.942 33.6461C261.933 33.5025 262.427 33.3215 263.089 33.339C263.763 33.3533 264.26 33.6803 264.191 33.8168C264.128 33.9549 263.659 33.8954 263.067 33.8842C262.473 33.8668 261.952 33.8025 261.942 33.6461Z" fill="#22343D"/>
<path fill-rule="evenodd" clip-rule="evenodd" d="M264.016 175.349C264.016 175.349 266.432 183.927 268.927 183.224C271.423 182.523 269.547 170.551 269.547 170.551L267.057 166.616C267.057 166.616 269.396 186.655 264.016 175.349Z" fill="#22343D"/>
<path fill-rule="evenodd" clip-rule="evenodd" d="M294.489 127.794C294.489 127.794 296.246 125.877 298.377 125.557C300.507 125.238 308.122 124.332 309.241 125.344C310.36 126.356 303.069 129.749 303.069 129.749C303.069 129.749 305.609 128.13 304.554 127.528C302.69 126.462 294.489 127.794 294.489 127.794Z" fill="#22343D"/>
<path fill-rule="evenodd" clip-rule="evenodd" d="M291.467 130.09L293.851 134.931L295.152 134.209L291.973 129.44L291.467 130.09Z" fill="#22343D"/>
<path fill-rule="evenodd" clip-rule="evenodd" d="M264.808 162.818L258.956 168.093L260.69 169.538L265.603 164.191L264.808 162.818Z" fill="#22343D"/>
<path fill-rule="evenodd" clip-rule="evenodd" d="M142.457 110.308C140.793 106.178 140.153 101.58 137.67 97.8836C134.096 92.5653 127.232 89.9264 124.332 84.2121C123.1 81.7851 122.714 79.0089 122.701 76.2875C122.677 70.9033 124.289 65.1795 128.448 61.758C133.226 57.8263 140.396 57.881 145.993 60.5223C151.588 63.1636 155.863 67.9581 159.498 72.966C163.134 77.9732 166.316 83.347 170.55 87.8598C173.688 91.2058 177.411 94.0915 179.776 98.0225C186.257 108.8 179.588 122.435 168.146 126.325C158.091 129.742 145.936 118.943 142.457 110.308Z" fill="#22343D"/>
<path fill-rule="evenodd" clip-rule="evenodd" d="M128.133 186.317C129.128 187.135 128.043 186.568 129.49 187.511C129.167 191.128 125.822 193.406 125.822 193.406C125.822 193.406 125.681 199.164 124.606 199.046C123.529 198.929 124.219 193.501 124.219 193.501C124.219 193.501 122.017 199.173 121.085 198.812C120.154 198.452 123.525 191.944 123.525 191.944C123.525 191.944 118.8 198.448 118.151 197.423C117.502 196.398 121.66 190.122 121.66 190.122C121.66 190.122 116.526 195.505 115.946 194.633C115.367 193.764 122.073 186.278 122.073 186.278C118.969 186.244 119.189 184.132 119.189 184.132L126.749 184.58C126.749 184.58 127.675 185.939 128.133 186.317Z" fill="#FFC6B2"/>
<path fill-rule="evenodd" clip-rule="evenodd" d="M200.358 77.7219C201.652 77.9488 200.648 77.5203 202.326 78.0084C205.083 75.5036 204.717 71.5679 204.717 71.5679C204.717 71.5679 209.341 67.8599 208.574 67.1353C207.803 66.4091 203.792 70.3163 203.792 70.3163C203.792 70.3163 207.055 65.1313 206.178 64.6646C205.301 64.1988 202.082 70.7766 202.082 70.7766C202.082 70.7766 204.451 63.1948 203.205 63.3535C201.962 63.5131 199.423 70.5282 199.423 70.5282C199.423 70.5282 200.617 63.3464 199.543 63.4599C198.468 63.5726 196.73 72.9814 196.73 72.9814C194.198 70.921 192.426 72.2401 192.426 72.2401L197.967 77.6734C197.967 77.6734 199.763 77.6187 200.358 77.7219Z" fill="#FFC6B2"/>
<path fill-rule="evenodd" clip-rule="evenodd" d="M168.707 109.168C171.046 108.803 178.179 113.425 176.364 122.812C176.212 123.6 175.183 125.335 174.926 126.052C174.603 126.961 177.126 130.287 177.126 130.287L170.612 132.368C170.334 130.401 170.802 127.525 168.697 126.671C167.91 126.351 167.067 126.148 166.324 125.743C164.319 124.648 163.248 122.252 162.424 120.291C161.809 118.825 161.341 117.248 161.358 115.658C161.401 111.653 164.948 109.756 168.707 109.168Z" fill="#FFC6B2"/>
<path fill-rule="evenodd" clip-rule="evenodd" d="M181.751 134.876C181.751 131.497 180.679 130.207 177.133 130.207C173.587 130.207 168.906 131.497 168.906 134.876C168.906 138.255 171.41 142.484 174.958 142.484C178.503 142.484 181.751 138.255 181.751 134.876Z" fill="#FFC6B2"/>
<path fill-rule="evenodd" clip-rule="evenodd" d="M178.95 128.57C178.95 128.57 189.976 117.201 192.182 106.065C194.388 94.9291 198.136 76.8591 198.136 76.8591L202.326 78.0083C202.326 78.0083 204.312 102.704 202.326 106.485C200.342 110.268 189.094 136.532 189.314 143.255L178.95 128.57Z" fill="#FFC6B2"/>
<path fill-rule="evenodd" clip-rule="evenodd" d="M159.296 134.074C159.296 134.074 155.547 134.704 149.813 147.732C144.079 160.759 126.436 185.012 126.436 185.012L129.303 187.652C129.303 187.652 146.505 174.836 149.813 167.062C153.12 159.289 157.31 149.623 159.296 150.043C161.28 150.464 169.661 138.906 159.296 134.074Z" fill="#FFC6B2"/>
<path fill-rule="evenodd" clip-rule="evenodd" d="M188.815 144.992L193.949 130.822C193.949 130.822 193.157 124.176 183.024 121.793L177.284 130.064L188.815 144.992Z" fill="#22343D"/>
<path fill-rule="evenodd" clip-rule="evenodd" d="M161.008 132.987C161.008 132.987 154.95 133.497 150.041 144.281C150.041 144.281 155.44 151.735 159.39 151.986C159.39 151.986 174.061 139.446 161.008 132.987Z" fill="#22343D"/>
<path fill-rule="evenodd" clip-rule="evenodd" d="M178.318 175.98L186.314 172.923C186.314 172.923 210.044 214.851 209.946 226.483C209.847 238.114 177.354 261.405 177.354 261.405L171.873 256.891C171.873 256.891 187.274 234.247 192.637 228.37C195.319 225.432 176.121 211.03 173.213 197.173C170.305 183.315 178.318 175.98 178.318 175.98Z" fill="#22343D"/>
<path fill-rule="evenodd" clip-rule="evenodd" d="M130.243 251.512C130.243 251.512 113.887 263.568 114.568 260.185C115.25 256.798 119.367 249.887 120.4 249.118C121.434 248.351 127.018 245.458 127.018 245.458L130.243 251.512Z" fill="#FFC6B2"/>
<path fill-rule="evenodd" clip-rule="evenodd" d="M156.564 190.827L180.221 177.117C180.221 177.117 181.159 224.743 175.48 235.04C169.802 245.338 129.72 251.862 129.72 251.862L127.018 245.459C127.018 245.459 151.746 230.725 159.338 227.842C166.931 224.957 156.564 190.827 156.564 190.827Z" fill="#22343D"/>
<path fill-rule="evenodd" clip-rule="evenodd" d="M170.652 167.739C170.652 167.739 153.234 173.906 156.564 190.828C159.893 207.748 165.443 210.92 165.443 210.92L175.433 194.529L185.462 173.063L175.433 171.791L170.652 167.739Z" fill="#22343D"/>
<path fill-rule="evenodd" clip-rule="evenodd" d="M178.951 128.57C178.951 128.57 191.775 135.757 191.775 151.997C191.775 151.997 190.146 170.513 187.505 174.558C187.505 174.558 183.213 175.606 177.862 174.558C172.251 173.459 166.821 169.516 166.821 169.516L162.438 146.847L159.029 133.612L160.877 133.002L170.522 131.943C170.522 131.943 169.137 146.351 179.906 139.196C182.175 137.689 177.083 130.176 177.083 130.176L178.951 128.57Z" fill="#F03E3D"/>
<path fill-rule="evenodd" clip-rule="evenodd" d="M186.8 67.1991L213.689 82.8849L228.814 54.3149L203.606 40.3101L186.8 67.1991Z" fill="#F03E3D"/>
<path fill-rule="evenodd" clip-rule="evenodd" d="M224.207 203.961L243.438 192.056L227.55 164.323L209.971 175.723L224.207 203.961Z" fill="#02897A"/>
<path fill-rule="evenodd" clip-rule="evenodd" d="M140.564 46.8264L150.27 40.8787L142.251 27.0234L133.379 32.7185L140.564 46.8264Z" fill="#740A76"/>
<path fill-rule="evenodd" clip-rule="evenodd" d="M129.52 85.7858C129.571 85.7406 130.164 86.2795 131.103 87.3787C132.038 88.4795 133.314 90.1533 134.594 92.4121C135.879 94.6613 137.15 97.5153 138.058 100.828C138.998 104.116 139.628 107.812 141.072 111.372C141.822 113.131 142.731 114.769 143.813 116.216C144.904 117.654 146.114 118.916 147.36 120.017C149.906 122.16 152.574 123.634 154.951 124.485C157.325 125.349 159.359 125.736 160.773 125.875C162.186 126.031 162.985 126.054 162.985 126.147C162.989 126.205 162.193 126.326 160.743 126.299C159.293 126.288 157.182 126.011 154.697 125.214C152.209 124.428 149.399 122.974 146.712 120.784C145.394 119.659 144.113 118.356 142.959 116.858C141.814 115.352 140.848 113.63 140.063 111.786C138.558 108.065 137.963 104.336 137.088 101.091C136.252 97.8359 135.091 95.0343 133.916 92.7803C132.748 90.52 131.59 88.8065 130.768 87.6382C129.942 86.4723 129.458 85.8406 129.52 85.7858Z" fill="#22343D"/>
<path fill-rule="evenodd" clip-rule="evenodd" d="M162.556 67.4346C162.754 67.4044 162.946 70.0513 164.427 73.9664C165.166 75.9164 166.266 78.16 167.846 80.4092C168.636 81.5354 169.545 82.645 170.573 83.7505C171.595 84.8609 172.707 85.9886 173.759 87.2537C175.868 89.8069 177.318 92.5664 178.684 95.0022C180.041 97.4617 181.121 99.8014 181.67 101.894C182.243 103.981 182.276 105.777 182.095 106.968C181.905 108.165 181.607 108.771 181.558 108.755C181.464 108.73 181.618 108.09 181.672 106.93C181.718 105.772 181.571 104.085 180.93 102.113C180.311 100.132 179.198 97.9006 177.808 95.4934C176.397 93.0871 174.934 90.3831 172.919 87.9498C171.908 86.7323 170.811 85.6085 169.784 84.4704C168.75 83.3378 167.811 82.1585 167.018 80.9783C165.427 78.6156 164.365 76.2608 163.7 74.2251C163.02 72.1902 162.731 70.4727 162.593 69.2894C162.458 68.1036 162.494 67.4401 162.556 67.4346Z" fill="#22343D"/>
<path fill-rule="evenodd" clip-rule="evenodd" d="M170.799 119.371C170.789 119.295 171.227 119.225 171.64 118.739C171.736 118.627 171.832 118.464 171.83 118.369C171.828 118.266 171.756 118.088 171.633 117.986C171.505 117.872 171.363 117.816 171.176 117.835C170.982 117.85 170.747 117.946 170.439 117.992C169.764 118.081 169.238 117.7 168.892 117.392C168.536 117.067 168.265 116.738 168.063 116.442C167.66 115.848 167.534 115.419 167.596 115.387C167.667 115.349 167.91 115.704 168.365 116.203C168.592 116.45 168.879 116.734 169.217 117.008C169.55 117.274 169.958 117.516 170.365 117.452C170.581 117.424 170.832 117.323 171.139 117.303C171.451 117.272 171.798 117.415 171.988 117.63C172.19 117.849 172.304 118.107 172.28 118.412C172.22 118.725 172.054 118.871 171.917 119.007C171.324 119.527 170.78 119.442 170.799 119.371Z" fill="#22343D"/>
<path fill-rule="evenodd" clip-rule="evenodd" d="M173.977 119.818L168.812 121.696C168.812 121.696 173.194 125.529 173.977 119.818Z" fill="white"/>
<path fill-rule="evenodd" clip-rule="evenodd" d="M168.297 119.498C168.504 119.89 168.198 120.457 167.615 120.764C167.032 121.071 166.392 121.002 166.186 120.61C165.979 120.219 166.285 119.652 166.868 119.345C167.451 119.038 168.091 119.106 168.297 119.498Z" fill="#FFB2A0"/>
<path fill-rule="evenodd" clip-rule="evenodd" d="M174.419 116.359C174.588 116.769 174.231 117.304 173.622 117.555C173.013 117.808 172.382 117.68 172.213 117.27C172.044 116.861 172.401 116.326 173.01 116.074C173.619 115.823 174.25 115.95 174.419 116.359Z" fill="#FFB2A0"/>
<path fill-rule="evenodd" clip-rule="evenodd" d="M168.965 126.808C168.965 126.808 170.693 127.16 172.895 126.61C172.895 126.61 171.81 127.664 170.036 127.91C170.036 127.91 169.638 127.175 168.965 126.808Z" fill="#FFA192"/>
<path fill-rule="evenodd" clip-rule="evenodd" d="M170.731 115.2C170.924 115.364 170.948 115.654 170.784 115.848C170.62 116.042 170.33 116.065 170.136 115.901C169.942 115.738 169.918 115.447 170.082 115.253C170.247 115.059 170.537 115.035 170.731 115.2Z" fill="#22343D"/>
<path fill-rule="evenodd" clip-rule="evenodd" d="M167.26 117.196C167.454 117.36 167.477 117.651 167.313 117.845C167.15 118.038 166.859 118.062 166.665 117.898C166.471 117.733 166.447 117.444 166.612 117.249C166.776 117.056 167.066 117.032 167.26 117.196Z" fill="#22343D"/>
<path fill-rule="evenodd" clip-rule="evenodd" d="M170.751 113.279C170.705 113.426 170.274 113.421 169.8 113.564C169.323 113.693 168.96 113.926 168.843 113.825C168.721 113.741 169.002 113.224 169.65 113.04C170.297 112.853 170.809 113.142 170.751 113.279Z" fill="#22343D"/>
<path fill-rule="evenodd" clip-rule="evenodd" d="M164.756 116.899C164.64 116.814 164.822 116.32 165.263 115.826C165.709 115.321 166.281 115.153 166.34 115.294C166.405 115.431 166.056 115.751 165.665 116.195C165.268 116.637 164.882 116.994 164.756 116.899Z" fill="#22343D"/>
<path fill-rule="evenodd" clip-rule="evenodd" d="M162.808 120.734C162.808 120.734 161.152 119.343 160.357 120.601C159.562 121.86 163.934 122.523 163.934 122.523L162.808 120.734Z" fill="#FFC6B2"/>
<path fill-rule="evenodd" clip-rule="evenodd" d="M122.982 247.595C122.982 247.595 120.607 248.627 119.988 249.247C119.369 249.866 113.69 259.674 114.413 260.913C115.136 262.152 120.83 257.946 120.83 257.946C120.83 257.946 116.065 258.849 122.982 247.595Z" fill="#22343D"/>
</svg>
